<svg id="ai_label_16" viewBox="0 0 16 16" fill="none" xmlns="http://www.w3.org/2000/svg"><path d="M13.0567 3.34473L11.8525 12.9507H13.5972L14.8012 3.34473H13.0567Z" fill="#0085FF"></path><path d="M7.20058 3.28955C8.30386 3.28973 9.19178 3.99839 9.40458 5.03521L10.7197 11.4493L10.7206 11.4519L10.7318 11.5109L10.7448 11.5743L10.7926 11.8034C10.7955 11.8175 10.797 11.8309 10.8004 11.8564L10.7995 11.8573L10.8022 11.8668L11.0139 12.9493H9.29435L9.05471 11.7218V11.7201L8.86464 10.793L8.82558 10.6021L8.47835 8.91025L7.78999 5.55257C7.71129 5.16952 7.38086 4.91042 6.98617 4.91022C6.59694 4.91022 6.23237 5.16024 6.07731 5.52219L4.64242 8.87984L3.91933 10.5717L3.58426 11.3564L3.49138 11.5743H3.49746L3.2301 12.1846L3.18495 12.2904C3.1861 12.2877 3.18706 12.2845 3.18755 12.2835C3.18732 12.2839 3.18607 12.2865 3.18495 12.2887L3.17975 12.2999L2.89502 12.9493H1.19971L1.63981 11.9458L1.64329 11.9371L1.64589 11.9285C1.6557 11.896 1.66683 11.8641 1.67975 11.8338L4.5721 5.0656C5.02433 4.00786 6.09179 3.28972 7.20058 3.28955Z" fill="#0085FF"></path><path d="M7.05084 10.5797C7.42744 10.7209 7.84725 10.5302 7.98853 10.1537C8.12981 9.77703 7.93906 9.35721 7.56247 9.21597L7.05084 10.5797ZM2.25937 12.5964L2.89862 12.9454C4.1354 10.6795 5.88247 10.1414 7.05084 10.5797L7.30666 9.89783L7.56247 9.21597C5.47527 8.43292 3.06594 9.59872 1.62012 12.2475L2.25937 12.5964Z" fill="#0085FF"></path></svg>