<svg id="at_24" viewBox="0 0 24 24" fill="none" xmlns="http://www.w3.org/2000/svg"><path d="M16 7.5V10M17.5 19.5V19.5C16.1847 20.1576 14.7344 20.5 13.2639 20.5H12.25C7.41751 20.5 3.5 16.5825 3.5 11.75V11.5C3.5 6.80558 7.30558 3 12 3H12.7746C17.0412 3 20.5 6.45879 20.5 10.7254V13.882C20.5 14.8736 19.9397 15.7801 19.0528 16.2236L18.9271 16.2865C18.6462 16.4269 18.3365 16.5 18.0225 16.5V16.5C16.9055 16.5 16 15.5945 16 14.4775V10M16 10V12.25C16 14.3211 14.3211 16 12.25 16V16C10.1789 16 8.5 14.3211 8.5 12.25V11.331C8.5 9.21518 10.2152 7.5 12.331 7.5V7.5C13.6766 7.5 14.9236 8.20604 15.616 9.35994L16 10Z" stroke="currentColor" stroke-width="1.5" stroke-linecap="round" stroke-linejoin="round"></path></svg>