<svg id="channel_robot_24" viewBox="0 0 24 24" fill="none" xmlns="http://www.w3.org/2000/svg"><path d="M12 3C12.9664 3.00013 13.75 3.78358 13.75 4.75C13.75 5.42873 13.3627 6.0154 12.7979 6.30566V7.44141C12.7978 7.46347 12.7957 7.48522 12.7939 7.50684C17.2141 7.66166 20.75 11.2921 20.75 15.75V16.4971C20.7499 18.9839 18.7338 20.9998 16.2471 21H7.75293C5.26618 20.9998 3.25008 18.9839 3.25 16.4971V15.75C3.25 11.2925 6.78547 7.66228 11.2051 7.50684C11.2033 7.48526 11.2022 7.46344 11.2021 7.44141V6.30566C10.6374 6.01537 10.25 5.42865 10.25 4.75C10.25 3.78358 11.0336 3.00013 12 3ZM11.5 9C7.77219 9.00013 4.75 12.0222 4.75 15.75V16.4971C4.75008 18.1554 6.09461 19.4998 7.75293 19.5H16.2471C17.9054 19.4998 19.2499 18.1554 19.25 16.4971V15.75C19.25 12.0222 16.2278 9.00013 12.5 9H11.5ZM9.5 11.5C9.91421 11.5 10.25 11.8358 10.25 12.25V14.25C10.25 14.6642 9.91421 15 9.5 15C9.08579 15 8.75 14.6642 8.75 14.25V12.25C8.75 11.8358 9.08579 11.5 9.5 11.5ZM14.5 11.5C14.9142 11.5 15.25 11.8358 15.25 12.25V14.25C15.25 14.6642 14.9142 15 14.5 15C14.0858 15 13.75 14.6642 13.75 14.25V12.25C13.75 11.8358 14.0858 11.5 14.5 11.5Z" fill="currentColor"></path></svg>