<svg id="close_16" viewBox="0 0 16 16" fill="none" xmlns="http://www.w3.org/2000/svg"><path d="M11.1164 4.14655C11.3116 3.95128 11.6282 3.95128 11.8234 4.14655C12.0186 4.34181 12.0187 4.65833 11.8234 4.85358L8.67693 8.00006L11.8234 11.1465C12.0186 11.3418 12.0187 11.6583 11.8234 11.8536C11.6282 12.0487 11.3116 12.0487 11.1164 11.8536L7.9699 8.70709L4.82342 11.8536C4.62816 12.0487 4.3116 12.0487 4.11639 11.8536C3.92119 11.6584 3.92128 11.3418 4.11639 11.1465L7.26287 8.00006L4.11639 4.85358C3.92117 4.65836 3.92127 4.34182 4.11639 4.14655C4.31165 3.95128 4.62816 3.95128 4.82342 4.14655L7.9699 7.29303L11.1164 4.14655Z" fill="currentColor"></path></svg>