<svg id="close_fill_24" viewBox="0 0 24 24" fill="none" xmlns="http://www.w3.org/2000/svg"><path d="M16.9698 5.96979C17.2627 5.67689 17.7375 5.6769 18.0304 5.96979C18.3231 6.26269 18.3232 6.73749 18.0304 7.03033L13.0606 12.0001L18.0304 16.9698C18.3231 17.2627 18.3232 17.7375 18.0304 18.0303C17.7375 18.3231 17.2627 18.3231 16.9698 18.0303L12.0001 13.0606L7.03036 18.0303C6.73751 18.3231 6.26271 18.3231 5.96982 18.0303C5.67696 17.7375 5.67698 17.2627 5.96982 16.9698L10.9395 12.0001L5.96982 7.03033C5.67694 6.73746 5.67697 6.26268 5.96982 5.96979C6.26271 5.6769 6.73747 5.67689 7.03036 5.96979L12.0001 10.9395L16.9698 5.96979Z" fill="currentColor"></path></svg>