<svg id="copy_24" viewBox="0 0 24 24" fill="none" xmlns="http://www.w3.org/2000/svg"><path d="M15.4004 2.25C16.3679 2.25 17.1386 2.24906 17.7598 2.2998C18.3898 2.35128 18.932 2.4593 19.4297 2.71289C20.2293 3.12035 20.8797 3.77066 21.2871 4.57031C21.5407 5.06801 21.6487 5.61022 21.7002 6.24023C21.7509 6.86139 21.75 7.63214 21.75 8.59961V13.5C21.75 15.7801 19.9544 17.6396 17.7002 17.7441C17.6998 17.7493 17.7006 17.7546 17.7002 17.7598C17.6487 18.3898 17.5407 18.932 17.2871 19.4297C16.8797 20.2293 16.2293 20.8797 15.4297 21.2871C14.932 21.5407 14.3898 21.6487 13.7598 21.7002C13.1386 21.7509 12.3679 21.75 11.4004 21.75H8.59961C7.63214 21.75 6.86139 21.7509 6.24023 21.7002C5.61022 21.6487 5.06801 21.5407 4.57031 21.2871C3.77066 20.8797 3.12035 20.2293 2.71289 19.4297C2.4593 18.932 2.35128 18.3898 2.2998 17.7598C2.24906 17.1386 2.25 16.3679 2.25 15.4004V12.5996C2.25 11.6321 2.24906 10.8614 2.2998 10.2402C2.35128 9.61022 2.4593 9.06801 2.71289 8.57031C3.12035 7.77066 3.77066 7.12035 4.57031 6.71289C5.06801 6.4593 5.61022 6.35128 6.24023 6.2998C6.2451 6.29941 6.25 6.29922 6.25488 6.29883C6.35991 4.04503 8.22023 2.25 10.5 2.25H15.4004ZM8.59961 7.75C7.60738 7.75 6.90823 7.75032 6.3623 7.79492C5.82527 7.8388 5.5029 7.92201 5.25195 8.0498C4.73451 8.31346 4.31346 8.73451 4.0498 9.25195C3.92201 9.5029 3.8388 9.82527 3.79492 10.3623C3.75032 10.9082 3.75 11.6074 3.75 12.5996V15.4004C3.75 16.3926 3.75032 17.0918 3.79492 17.6377C3.8388 18.1747 3.92201 18.4971 4.0498 18.748C4.31346 19.2655 4.73451 19.6865 5.25195 19.9502C5.5029 20.078 5.82527 20.1612 6.3623 20.2051C6.90823 20.2497 7.60738 20.25 8.59961 20.25H11.4004C12.3926 20.25 13.0918 20.2497 13.6377 20.2051C14.1747 20.1612 14.4971 20.078 14.748 19.9502C15.2655 19.6865 15.6865 19.2655 15.9502 18.748C16.078 18.4971 16.1612 18.1747 16.2051 17.6377C16.2497 17.0918 16.25 16.3926 16.25 15.4004V12.5996C16.25 11.6074 16.2497 10.9082 16.2051 10.3623C16.1612 9.82527 16.078 9.5029 15.9502 9.25195C15.6865 8.73451 15.2655 8.31346 14.748 8.0498C14.4971 7.92201 14.1747 7.8388 13.6377 7.79492C13.0918 7.75032 12.3926 7.75 11.4004 7.75H8.59961ZM10.5 3.75C9.06454 3.75 7.8877 4.84998 7.7627 6.25293C8.02403 6.25158 8.30254 6.25 8.59961 6.25H11.4004C12.3679 6.25 13.1386 6.24906 13.7598 6.2998C14.3898 6.35128 14.932 6.4593 15.4297 6.71289C16.2293 7.12035 16.8797 7.77066 17.2871 8.57031C17.5407 9.06801 17.6487 9.61022 17.7002 10.2402C17.7509 10.8614 17.75 11.6321 17.75 12.5996V15.4004C17.75 15.6971 17.7474 15.9753 17.7461 16.2363C19.1495 16.1117 20.25 14.9358 20.25 13.5V8.59961C20.25 7.60738 20.2497 6.90823 20.2051 6.3623C20.1612 5.82527 20.078 5.5029 19.9502 5.25195C19.6865 4.73451 19.2655 4.31346 18.748 4.0498C18.4971 3.92201 18.1747 3.8388 17.6377 3.79492C17.0918 3.75032 16.3926 3.75 15.4004 3.75H10.5Z" fill="currentColor"></path></svg>