<svg id="essence_message_24" viewBox="0 0 24 24" fill="none" xmlns="http://www.w3.org/2000/svg"><path fill-rule="evenodd" clip-rule="evenodd" d="M13.0761 11.8313C13.0075 11.8575 12.9532 11.9115 12.9267 11.98L12.1308 14.0386C12.0454 14.2596 11.7327 14.2596 11.6472 14.0386L10.8513 11.98C10.8248 11.9115 10.7705 11.8575 10.7019 11.8313L8.63467 11.0423C8.41225 10.9574 8.41225 10.6427 8.63467 10.5578L10.7019 9.76882C10.7705 9.74264 10.8248 9.68859 10.8513 9.62009L11.6472 7.56154C11.7327 7.34052 12.0454 7.34052 12.1308 7.56155L12.9267 9.62009C12.9532 9.68859 13.0075 9.74264 13.0761 9.76882L15.1434 10.5578C15.3658 10.6427 15.3658 10.9574 15.1434 11.0423L13.0761 11.8313Z" fill="currentColor"></path><path d="M21 8.98684C21 6.37076 18.8792 4.25 16.2632 4.25H7.73684C5.12076 4.25 3 6.37076 3 8.98684V18.7153C3 19.2867 3.46326 19.75 4.03471 19.75V19.75C4.42347 19.75 4.78916 19.5655 5.02019 19.2529L6.01758 17.9031C6.19877 17.6578 6.48559 17.5132 6.79049 17.5132H16.2632C18.8792 17.5132 21 15.3924 21 12.7763V8.98684Z" stroke="currentColor" stroke-width="1.5"></path></svg>