<svg id="filelook_folder_16" viewBox="0 0 40 40" fill="none" xmlns="http://www.w3.org/2000/svg"><path d="M-8.01086e-05 6.25001C-8.01086e-05 4.40906 1.4923 2.91667 3.33325 2.91667H11.7213C12.6121 2.91667 13.4659 3.27325 14.0921 3.90684L16.6533 6.4983C16.9664 6.81509 17.3933 6.99338 17.8387 6.99338H36.6666C38.5075 6.99338 39.9999 8.48577 39.9999 10.3267V33.75C39.9999 35.591 38.5075 37.0833 36.6666 37.0833H3.33325C1.4923 37.0833 -8.01086e-05 35.591 -8.01086e-05 33.75V6.25001Z" fill="#5FB4FF"></path><path d="M3.33325 11.25C3.33325 10.3295 4.07944 9.58333 4.99992 9.58333H34.9999C35.9204 9.58333 36.6666 10.3295 36.6666 11.25V13.75H3.33325V11.25Z" fill="white"></path><path d="M-8.01086e-05 17.5C-8.01086e-05 15.143 -8.01086e-05 13.9645 0.732153 13.2322C1.46439 12.5 2.6429 12.5 4.99992 12.5H34.9999C37.3569 12.5 38.5355 12.5 39.2677 13.2322C39.9999 13.9645 39.9999 15.143 39.9999 17.5V32.0833C39.9999 34.4404 39.9999 35.6189 39.2677 36.3511C38.5355 37.0833 37.3569 37.0833 34.9999 37.0833H4.99992C2.6429 37.0833 1.46439 37.0833 0.732153 36.3511C-8.01086e-05 35.6189 -8.01086e-05 34.4404 -8.01086e-05 32.0833V17.5Z" fill="url(#paint0_linear_457_29306)"></path><defs><linearGradient id="paint0_linear_457_29306" x1="19.9998" y1="12.228" x2="19.9999" y2="37.0833" gradientUnits="userSpaceOnUse"><stop stop-color="#70BCFF"></stop><stop offset="1" stop-color="#5FB4FF"></stop></linearGradient></defs></svg>