<svg id="pause_24" viewBox="0 0 24 24" fill="none" xmlns="http://www.w3.org/2000/svg"><path fill-rule="evenodd" clip-rule="evenodd" d="M16 3.5C17.1046 3.5 18 4.39543 18 5.5L18 18.5C18 19.6046 17.1046 20.5 16 20.5C14.8954 20.5 14 19.6046 14 18.5L14 5.5C14 4.39543 14.8954 3.5 16 3.5Z" fill="currentColor"></path><path fill-rule="evenodd" clip-rule="evenodd" d="M8 3.5C9.10457 3.5 10 4.39543 10 5.5L10 18.5C10 19.6046 9.10457 20.5 8 20.5C6.89543 20.5 6 19.6046 6 18.5L6 5.5C6 4.39543 6.89543 3.5 8 3.5Z" fill="currentColor"></path></svg>