<svg id="quote_24" viewBox="0 0 24 24" fill="none" xmlns="http://www.w3.org/2000/svg"><path d="M7.49429 17.8896L13.9319 20.9077C14.5358 21.1908 15.1676 20.7497 15.2244 20.1654C15.2378 20.0279 15.1611 19.7368 15.1611 19.7368V19.7368C14.9133 19.0616 15.3499 18.3317 16.0253 18.0845C18.9219 17.0243 20.999 14.1453 20.999 10.7599C20.999 6.47421 17.6704 3 13.5642 3H10.4338C6.32769 3 2.99902 6.47421 2.99902 10.7599C2.99902 13.5914 4.45206 16.0687 6.62233 17.4238M7.49429 17.8896L6.62233 17.4238M7.49429 17.8896C7.44421 17.8671 7.39442 17.844 7.34492 17.8204C7.21999 17.7607 7.09692 17.6976 6.97583 17.6311L6.96553 17.6254L6.96439 17.6248C6.84852 17.5609 6.73447 17.4938 6.62233 17.4238" stroke="currentColor" stroke-width="1.5"></path><path d="M9.9209 6.74585C10.3339 6.57453 10.7568 6.90521 10.7568 7.35229C10.7568 7.65664 10.5533 7.9184 10.2764 8.04468C9.75078 8.2844 9.32528 8.63753 9.00098 9.09155C8.57257 9.62706 8.40131 9.85403 8.38867 10.4646C8.56028 10.415 8.7421 10.3884 8.92969 10.3884C10.0027 10.3884 10.873 11.2587 10.873 12.3318C10.873 13.4048 10.0027 14.2751 8.92969 14.2751C8.91711 14.2751 8.90412 14.2744 8.8916 14.2742C8.88184 14.2743 8.87208 14.2742 8.8623 14.2742C8.22139 14.2742 7.71968 13.9955 7.35742 13.4939C6.96742 12.9923 6.7998 12.3517 6.7998 11.5437C6.79981 10.2898 7.16222 9.20298 7.88672 8.31128C8.41598 7.61266 9.08991 7.09063 9.9209 6.74585ZM15.5215 6.74585C15.9344 6.57453 16.3574 6.90521 16.3574 7.35229C16.3574 7.65664 16.1539 7.9184 15.877 8.04468C15.3513 8.2844 14.9259 8.63749 14.6016 9.09155C14.1731 9.62713 14.0019 9.85399 13.9893 10.4646C14.1609 10.415 14.3427 10.3884 14.5303 10.3884C15.6033 10.3885 16.4727 11.2588 16.4727 12.3318C16.4726 13.4048 15.6033 14.2751 14.5303 14.2751C14.5177 14.2751 14.5047 14.2744 14.4922 14.2742C14.4824 14.2743 14.4727 14.2742 14.4629 14.2742C13.822 14.2742 13.3203 13.9955 12.958 13.4939C12.568 12.9923 12.4004 12.3517 12.4004 11.5437C12.4004 10.2897 12.7628 9.20298 13.4873 8.31128C14.0166 7.61264 14.6904 7.09062 15.5215 6.74585Z" fill="currentColor"></path></svg>