<svg id="recall_24" viewBox="0 0 24 24" fill="none" xmlns="http://www.w3.org/2000/svg"><path d="M7.46973 2.46973C7.76263 2.17691 8.23741 2.17686 8.53027 2.46973C8.82301 2.7626 8.82305 3.23742 8.53027 3.53027L5.81055 6.25H14C17.7278 6.25011 20.75 9.27215 20.75 13C20.75 16.7278 17.7278 19.7499 14 19.75H5C4.58581 19.75 4.25003 19.4142 4.25 19C4.25 18.5858 4.58579 18.25 5 18.25H14C16.8994 18.2499 19.25 15.8994 19.25 13C19.25 10.1006 16.8994 7.75011 14 7.75H5.81055L8.53027 10.4697C8.82301 10.7626 8.82305 11.2374 8.53027 11.5303C8.23742 11.8231 7.76263 11.823 7.46973 11.5303L4.17676 8.2373C3.49344 7.55391 3.49344 6.44609 4.17676 5.7627L7.46973 2.46973Z" fill="currentColor"></path></svg>