<svg id="tips_fail_16" viewBox="0 0 16 16" fill="none" xmlns="http://www.w3.org/2000/svg"><circle cx="8" cy="8" r="8" transform="matrix(1 0 0 -1 0 16)" fill="#FFB300"></circle><path d="M8.00024 10.75C8.4143 10.7502 8.75023 11.0859 8.75024 11.5C8.75024 11.9141 8.41431 12.2498 8.00024 12.25C7.58603 12.25 7.25024 11.9142 7.25024 11.5C7.25025 11.0858 7.58604 10.75 8.00024 10.75ZM8.00024 3.41699C8.41431 3.41717 8.75024 3.75289 8.75024 4.16699V9.5L8.74634 9.57715C8.70775 9.95504 8.38828 10.2498 8.00024 10.25C7.61208 10.25 7.29278 9.95511 7.25415 9.57715L7.25024 9.5V4.16699C7.25024 3.75278 7.58603 3.41699 8.00024 3.41699Z" fill="white"></path></svg>