<svg id="video_off_24" viewBox="0 0 24 24" fill="none" xmlns="http://www.w3.org/2000/svg"><path d="M3.35791 8.18677C3.3232 8.75874 3.3208 9.47677 3.3208 10.4456V12.5256C3.3208 13.6157 3.32126 14.3891 3.37061 14.9934C3.41924 15.5883 3.51198 15.9542 3.65869 16.2424C3.95581 16.8256 4.43011 17.3007 5.01318 17.5979C5.30154 17.7448 5.66785 17.8363 6.26318 17.885C6.86748 17.9344 7.64069 17.9358 8.73096 17.9358H11.4966C12.1254 17.9358 12.649 17.9339 13.0952 17.9241L14.5063 19.3352C14.3707 19.3532 14.2307 19.3683 14.0864 19.3801C13.4069 19.4356 12.5621 19.4358 11.4966 19.4358H8.73096C7.66543 19.4358 6.82064 19.4356 6.14111 19.3801C5.45292 19.3239 4.86754 19.2064 4.33252 18.9338C3.46723 18.4928 2.76271 17.7894 2.32178 16.9241C2.04933 16.3891 1.93172 15.8035 1.87549 15.1155C1.82 14.436 1.8208 13.591 1.8208 12.5256V10.4456C1.8208 9.38006 1.81997 8.53524 1.87549 7.85571C1.9048 7.49715 1.952 7.1668 2.02783 6.85669L3.35791 8.18677ZM11.4966 3.5354C12.5621 3.5354 13.4069 3.5346 14.0864 3.59009C14.7745 3.64632 15.3601 3.76392 15.895 4.03638C16.7604 4.4773 17.4637 5.18183 17.9048 6.04712C18.1012 6.4327 18.2165 6.84894 18.2876 7.3147C18.6405 7.07572 18.9461 6.87279 19.2095 6.72681C19.5331 6.5474 19.9114 6.38237 20.3315 6.40454C20.9032 6.43498 21.433 6.71571 21.7798 7.17114C22.0344 7.50591 22.1103 7.91113 22.144 8.27954C22.1785 8.65627 22.1782 9.13883 22.1782 9.71216V13.9426C22.1782 14.5159 22.1785 14.9985 22.144 15.3752C22.1103 15.7437 22.0344 16.1488 21.7798 16.4836C21.433 16.9393 20.9033 17.2198 20.3315 17.2502C19.9114 17.2724 19.5331 17.1074 19.2095 16.928C18.9156 16.765 18.5686 16.5311 18.1626 16.2551C18.0972 16.4882 18.0136 16.7105 17.9048 16.9241C17.8879 16.9573 17.8678 16.989 17.8501 17.0217L16.7095 15.8811C16.7827 15.6322 16.8336 15.322 16.8638 14.9026L16.8784 14.7991C16.9292 14.5623 17.0928 14.362 17.3198 14.2659C17.5792 14.1563 17.8785 14.2011 18.0942 14.3821C18.1722 14.4475 18.2874 14.5268 18.5239 14.6877L18.8501 14.9094C19.3485 15.2486 19.6805 15.4733 19.937 15.6155C20.1502 15.7336 20.2353 15.75 20.2515 15.7522C20.3835 15.7452 20.5064 15.6806 20.5864 15.5754C20.593 15.5622 20.6274 15.4837 20.6499 15.2385C20.6766 14.9465 20.6782 14.5456 20.6782 13.9426V9.71216C20.6782 9.10908 20.6766 8.7083 20.6499 8.41626C20.6227 8.12006 20.578 8.06806 20.5864 8.07935C20.5064 7.97442 20.3833 7.90958 20.2515 7.90259C20.2356 7.90469 20.1503 7.92014 19.937 8.03833C19.6805 8.18054 19.3488 8.40603 18.8501 8.74536L18.5239 8.96704C18.3097 9.11281 18.1941 9.1916 18.1128 9.25708C17.8909 9.43566 17.5872 9.47304 17.3286 9.35376C17.0701 9.23426 16.901 8.97829 16.8931 8.6936C16.8639 7.65378 16.7715 7.12546 16.5688 6.72778C16.2717 6.14487 15.7973 5.67041 15.2144 5.37329C14.926 5.22649 14.5595 5.13385 13.9644 5.08521C13.3601 5.03586 12.5868 5.0354 11.4966 5.0354H8.73096C7.64069 5.0354 6.86748 5.03583 6.26318 5.08521C6.15004 5.09445 6.04537 5.1069 5.94775 5.11938L4.70361 3.87524C5.13745 3.71473 5.60831 3.63364 6.14111 3.59009C6.82064 3.53457 7.66546 3.5354 8.73096 3.5354H11.4966Z" fill="currentColor"></path><path d="M2 4L18 20" stroke="currentColor" stroke-width="1.5" stroke-linecap="round"></path></svg>