<svg width="8" height="11" viewBox="0 0 8 11" fill="none" xmlns="http://www.w3.org/2000/svg">
<g id="Frame 427321458">
<path id="&#229;&#189;&#162;&#231;&#138;&#182;&#231;&#187;&#147;&#229;&#144;&#136;" fill-rule="evenodd" clip-rule="evenodd" d="M3.95337 11C5.69727 11 7.95202 9.53239 7.99992 7.17343C8.00086 7.15734 7.97771 6.43978 7.88151 5.87965C7.72383 5.24035 7.37166 4.38573 6.71763 3.47249C6.06359 2.55924 5.33057 1.80048 4.66732 0.838011C4.57854 0.709178 4.45775 0.483932 4.34078 0.25123C4.17937 -0.0698862 3.7122 -0.0772038 3.54753 0.242249C3.42796 0.474204 3.30769 0.701278 3.22701 0.838011C2.64493 1.8245 1.88143 2.63134 1.33593 3.47249C0.711977 4.43459 0.424525 4.93836 0.215875 5.66489C6.21213e-06 6.41655 6.21274e-06 7.17343 7.07421e-05 7.17343C0.0489075 9.53239 2.20948 11 3.95337 11Z" fill="#FFBE07"/>
<path id="&#230;&#152;&#159;&#229;&#189;&#162;" fill-rule="evenodd" clip-rule="evenodd" d="M3.25053 7.08942L1.77856 6.24992L3.25053 5.41043L4.05557 3.87549L4.86062 5.41043L6.33259 6.24992L4.86062 7.08942L4.05557 8.62436L3.25053 7.08942Z" fill="url(#paint0_linear_829_184375)"/>
</g>
<defs>
<linearGradient id="paint0_linear_829_184375" x1="5.34143" y1="3.4624" x2="0.150858" y2="4.26698" gradientUnits="userSpaceOnUse">
<stop stop-color="white"/>
<stop offset="1" stop-color="white" stop-opacity="0.7"/>
</linearGradient>
</defs>
</svg>
